<svg xmlns="http://www.w3.org/2000/svg" viewBox="0 0 76 76" width="76" height="76">
	<style>
		tspan { white-space:pre }
		.shp0 { fill: #000000 } 
	</style>
	<path id="Layer" class="shp0" d="M48.83 24.33C45.62 24.33 43 26.95 43 30.17C43 30.63 43.37 31 43.83 31C44.29 31 44.67 30.63 44.67 30.17C44.67 27.87 46.54 26 48.83 26C49.29 26 49.67 25.63 49.67 25.17C49.67 24.71 49.29 24.33 48.83 24.33Z" />
	<path id="Layer" class="shp0" d="M28.49 31.49C27.84 32.14 27.84 33.2 28.49 33.85C28.81 34.17 29.24 34.33 29.67 34.33C30.09 34.33 30.52 34.17 30.84 33.85C31.5 33.2 31.5 32.14 30.84 31.49C30.2 30.84 29.14 30.84 28.49 31.49Z" />
	<path id="Layer" class="shp0" d="M45.16 50.51C45.48 50.84 45.91 51 46.33 51C46.76 51 47.19 50.84 47.51 50.51C48.16 49.86 48.16 48.8 47.51 48.15C46.86 47.51 45.8 47.51 45.16 48.15C44.5 48.8 44.5 49.86 45.16 50.51Z" />
	<path id="Layer" fill-rule="evenodd" class="shp0" d="M57.7 32.53C56.72 36.45 53.12 39.18 48.75 39.34C48.29 39.35 47.82 39.5 47.33 39.73C50.96 44.32 53.08 48.81 53 51.86C52.97 53.12 52.58 54.13 51.85 54.85C51.12 55.58 50.12 55.97 48.86 56C48.8 56 48.73 56 48.67 56C46.18 56 42.87 54.64 39.38 52.32C38.97 54.4 37.99 56.33 36.49 57.83C34.38 59.94 31.6 61 28.83 61C26.05 61 23.28 59.94 21.17 57.83C16.94 53.61 16.94 46.73 21.17 42.51C22.67 41.01 24.59 40.03 26.68 39.62C24.29 36.04 22.93 32.66 23 30.15C23.03 28.88 23.42 27.88 24.15 27.15C24.87 26.42 25.88 26.04 27.14 26C30.18 25.98 34.68 28.04 39.27 31.67C39.5 31.18 39.65 30.71 39.66 30.25C39.82 25.88 42.55 22.28 46.46 21.3C49.7 20.48 53.01 21.37 55.32 23.68C57.63 25.99 58.52 29.3 57.7 32.53ZM37.9 51.26C37.37 50.87 36.85 50.47 36.32 50.05C36.32 50.09 36.33 50.13 36.33 50.17C36.33 54.3 32.97 57.67 28.83 57.67C24.7 57.67 21.33 54.3 21.33 50.17C21.33 45.99 24.8 42.56 28.95 42.68C28.53 42.15 28.13 41.63 27.74 41.1C25.69 41.34 23.79 42.24 22.35 43.68C18.78 47.26 18.78 53.07 22.35 56.65C25.92 60.22 31.74 60.22 35.31 56.65C36.76 55.21 37.66 53.31 37.9 51.26ZM32.44 46.56C32.44 46.56 32.44 46.56 32.44 46.56C31.8 45.92 31.2 45.28 30.61 44.64C30 44.43 29.42 44.33 28.83 44.33C25.62 44.33 23 46.95 23 50.17C23 53.38 25.62 56 28.83 56C32.05 56 34.67 53.38 34.67 50.17C34.67 49.58 34.57 49 34.36 48.38C33.72 47.8 33.07 47.2 32.44 46.56ZM45.92 40.62C45.03 41.3 44.2 42.17 43.53 43.02C43.05 43.62 42.32 43.95 41.58 43.95C41.21 43.95 40.84 43.86 40.49 43.7C39.63 43.28 38.39 42.57 37.41 41.59C36.43 40.61 35.72 39.37 35.3 38.51C34.8 37.46 35.08 36.19 35.98 35.47C36.83 34.8 37.7 33.96 38.38 33.08C34.09 29.67 29.86 27.57 27.19 27.67C26.37 27.69 25.74 27.91 25.33 28.33C24.91 28.74 24.69 29.37 24.67 30.19C24.6 32.59 26.17 36.07 28.79 39.72C28.8 39.73 28.81 39.73 28.82 39.74C29.49 40.68 30.21 41.59 30.97 42.49C31.04 42.58 31.12 42.67 31.19 42.76C31.97 43.66 32.77 44.54 33.62 45.38C34.46 46.23 35.34 47.03 36.23 47.8C36.33 47.88 36.43 47.96 36.53 48.05C37.42 48.79 38.32 49.51 39.26 50.18C39.27 50.19 39.27 50.2 39.28 50.21C42.94 52.84 46.43 54.41 48.81 54.33C49.63 54.31 50.26 54.09 50.67 53.67C51.09 53.26 51.31 52.63 51.33 51.81C51.4 49.15 49.33 44.91 45.92 40.62ZM54.14 24.86C52.71 23.44 50.81 22.67 48.82 22.67C48.18 22.67 47.52 22.75 46.87 22.91C43.68 23.72 41.46 26.69 41.33 30.31C41.23 33.21 38.01 35.99 37.02 36.77C36.72 37.01 36.63 37.43 36.8 37.78C37.17 38.53 37.77 39.59 38.59 40.41C39.41 41.23 40.47 41.83 41.22 42.2C41.57 42.37 41.99 42.27 42.22 41.98C43.01 40.99 45.78 37.77 48.69 37.67C52.31 37.54 55.28 35.31 56.09 32.13C56.76 29.47 56.03 26.75 54.14 24.86Z" />
</svg>